<?xml version="1.0" encoding="UTF-8"?><svg id="zaprite" xmlns="http://www.w3.org/2000/svg" viewBox="0 0 312 40"><defs><style>.cls-1{letter-spacing:-.02em;}.cls-2{letter-spacing:-.02em;}.cls-3{letter-spacing:0em;}.cls-4{letter-spacing:-.01em;}.cls-5{letter-spacing:-.02em;}.cls-6{letter-spacing:-.03em;}.cls-7{stroke-width:0px;}.cls-7,.cls-8{fill:#fff;}.cls-8{font-family:Gibson-Regular, Gibson;font-size:32px;isolation:isolate;}.cls-9{letter-spacing:0em;}</style></defs><text class="cls-8" transform="translate(0 31.08)"><tspan class="cls-6" x="0" y="0">P</tspan><tspan class="cls-5" x="15.92" y="0">o</tspan><tspan class="cls-1" x="33.47" y="0">w</tspan><tspan class="cls-3" x="57.14" y="0">e</tspan><tspan class="cls-4" x="73.9" y="0">r</tspan><tspan class="cls-9" x="84.27" y="0">e</tspan><tspan x="101.1" y="0">d </tspan><tspan class="cls-2" x="126.57" y="0">b</tspan><tspan x="145" y="0">y</tspan></text><g id="Group_1245"><path id="Path_2205" class="cls-7" d="M211.56,10.44c-1.16-.77-2.47-1.3-3.84-1.56-1.56-.31-3.15-.47-4.74-.46-5.15,0-7.73,1.26-7.73,3.79,0,.39.07.78.22,1.14.13.33.29.64.48.94.15.24.32.46.52.67.18.17.29.29.35.35.19-.13.4-.25.61-.35.37-.18.76-.33,1.15-.44.57-.16,1.15-.29,1.74-.37.78-.11,1.57-.16,2.35-.15,1.42-.11,2.85.19,4.1.87.8.53,1.27,1.44,1.24,2.4-.4-.06-.92-.1-1.54-.13-.62-.03-1.4-.04-2.31-.03-2.82-.21-5.63.39-8.12,1.72-1.8,1.33-2.77,3.5-2.56,5.73,0,.96.17,1.92.52,2.81.38.93,1.01,1.74,1.82,2.33,1.04.75,2.22,1.29,3.47,1.59,1.79.43,3.63.63,5.47.59,1.3,0,2.54-.03,3.71-.09,1.17-.06,2.22-.13,3.13-.22.91-.09,1.67-.17,2.28-.24.4-.03.79-.1,1.17-.2v-13.17c.05-1.58-.27-3.15-.93-4.58-.59-1.19-1.47-2.2-2.57-2.95M208.06,26.68c-.41.09-.84.14-1.26.15-.64.04-1.33.06-2.08.06-.77.02-1.55-.06-2.3-.24-.47-.1-.91-.3-1.3-.58-.27-.2-.46-.47-.57-.78-.19-.6-.17-1.24.04-1.83.13-.34.35-.63.63-.85.38-.28.82-.48,1.28-.59.7-.16,1.41-.24,2.13-.22,1.01,0,1.78.02,2.28.06.39.03.77.08,1.15.15v4.66Z"/><path id="Path_2206" class="cls-7" d="M266.08,0c-1.04-.03-2.04.39-2.76,1.13-.73.74-1.13,1.75-1.11,2.79-.05,2.09,1.6,3.83,3.69,3.88.06,0,.12,0,.17,0,1.04.02,2.04-.38,2.78-1.11.75-.73,1.16-1.73,1.13-2.77.02-1.05-.38-2.05-1.13-2.79-.73-.75-1.74-1.16-2.78-1.13"/><path id="Path_2207" class="cls-7" d="M266.25,9.03c-.93-.05-1.86.2-2.65.7-.72.58-1.09,1.48-1,2.4v18.27c.45.21.91.38,1.38.52.73.24,1.49.35,2.26.35.92.07,1.82-.23,2.52-.83.64-.78.94-1.79.84-2.79V9.69c-.17-.06-.58-.18-1.22-.37-.69-.2-1.41-.29-2.13-.28"/><path id="Path_2208" class="cls-7" d="M304.77,22.59c1.39-.22,2.73-.69,3.95-1.37.88-.5,1.59-1.26,2.02-2.18.39-.91.58-1.9.56-2.89,0-1-.23-1.99-.67-2.89-.47-.96-1.14-1.8-1.96-2.48-.93-.77-2-1.36-3.15-1.72-1.36-.44-2.79-.65-4.22-.63-1.6-.01-3.2.28-4.69.85-1.4.54-2.68,1.34-3.78,2.37-1.09,1.05-1.95,2.31-2.52,3.71-.62,1.52-.93,3.15-.91,4.8-.03,1.7.28,3.39.91,4.97,1.12,2.79,3.38,4.97,6.22,5.98,1.46.53,3.01.8,4.56.78,1.2,0,2.4-.09,3.58-.28.96-.16,1.91-.38,2.85-.67.67-.21,1.33-.47,1.97-.76h0c.2-.08.39-.18.58-.3-.01-.4-.05-.8-.12-1.2-.09-.62-.29-1.22-.57-1.78-.28-.69-.83-1.25-1.53-1.54-.44-.12-.9-.11-1.33.03h-.03c-.49.15-1.09.31-1.75.44-.7.13-1.42.2-2.13.2-.85.02-1.69-.07-2.52-.26-.61-.14-1.19-.37-1.72-.7-.4-.25-.76-.56-1.04-.94-.23-.3-.38-.65-.44-1.02h1.52c2.13.04,4.26-.12,6.36-.48M296.54,18.54c.03-.59.15-1.17.35-1.72.19-.56.5-1.07.89-1.5.41-.45.9-.81,1.46-1.07.64-.29,1.34-.43,2.04-.42.88-.07,1.75.17,2.48.67.51.37.82.96.82,1.59,0,.3-.06.59-.17.87-.21.37-.55.65-.96.79-.77.29-1.57.48-2.39.57-1.5.17-3.01.24-4.52.22"/><path id="Path_2209" class="cls-7" d="M259.58,10.22c-.61-.54-1.33-.96-2.11-1.22-1.31-.43-2.68-.62-4.06-.57-1.33-.01-2.64.19-3.91.59-1.12.35-2.16.94-3.04,1.72-.86.77-1.53,1.73-1.98,2.79-.5,1.2-.74,2.49-.72,3.79v13.08c.45.2.91.38,1.38.52.73.24,1.5.36,2.26.35.92.07,1.82-.23,2.51-.83.64-.78.94-1.79.84-2.79v-8.82c-.12-1.18.31-2.35,1.15-3.18.79-.65,1.78-.99,2.8-.96.78,0,1.55.09,2.3.31.61.17,1.2.39,1.78.65.09-.09.22-.22.39-.44.2-.24.38-.48.54-.74.2-.31.36-.65.48-1,.13-.39.2-.81.2-1.22,0-.39-.07-.78-.22-1.13-.15-.33-.36-.64-.61-.92"/><path id="Path_2210" class="cls-7" d="M238.15,11.65c-1.1-1.03-2.39-1.84-3.8-2.38-1.52-.58-3.13-.86-4.76-.85-1.96-.03-3.89.36-5.69,1.13-1.67.72-3.12,1.86-4.22,3.31-.75,1.04-1.29,2.21-1.61,3.45-.4,1.58-.59,3.21-.57,4.84v17.96c.44.2.9.38,1.37.52.73.24,1.49.36,2.25.35.91.07,1.81-.23,2.5-.83.63-.78.93-1.79.83-2.79v-6.89c.7.64,1.5,1.17,2.37,1.56,1.27.55,2.64.81,4.02.76,1.43,0,2.85-.27,4.17-.83,1.29-.54,2.45-1.34,3.41-2.35,1-1.06,1.78-2.3,2.3-3.66.58-1.53.87-3.16.85-4.8.02-1.64-.29-3.27-.91-4.8-.57-1.4-1.43-2.66-2.52-3.71M233,23.98c-.92.99-2.23,1.54-3.58,1.5-.69,0-1.37-.13-2-.41-.6-.27-1.14-.66-1.58-1.14-.46-.5-.81-1.08-1.04-1.72-.25-.68-.38-1.39-.37-2.11-.08-1.42.43-2.81,1.41-3.84.96-.93,2.25-1.43,3.58-1.38,1.34-.04,2.64.48,3.58,1.44.96,1.02,1.47,2.39,1.41,3.79.05,1.42-.45,2.81-1.41,3.86"/><path id="Path_2211" class="cls-7" d="M288.88,28.31c-.08-.56-.24-1.11-.48-1.63-.27-.69-.74-1.28-1.35-1.69-.64-.33-1.41-.31-2.03.05l-.13.06c-.72.28-1.49.42-2.26.41-.4,0-.8-.04-1.2-.11-.38-.07-.74-.23-1.04-.46-.32-.25-.58-.57-.76-.94-.23-.5-.33-1.05-.3-1.59v-6.84h7.73c.2-.42.38-.85.52-1.29.24-.68.35-1.4.35-2.11.07-.87-.23-1.72-.82-2.35-.8-.6-1.79-.88-2.78-.78h-5V3.15c-.18-.06-.58-.18-1.22-.37-.69-.2-1.41-.29-2.13-.28-.93-.05-1.86.2-2.65.7-.72.58-1.1,1.48-1,2.4v18.35c-.1,2.17.74,4.27,2.3,5.78,1.77,1.52,4.06,2.29,6.38,2.16.92,0,1.84-.09,2.74-.28.8-.16,1.58-.39,2.35-.67.62-.22,1.21-.5,1.78-.83.4-.22.78-.49,1.13-.78h0c-.01-.14-.06-.48-.12-1"/><path id="Path_2212" class="cls-7" d="M191.1,14.35c.31-.61.46-1.28.44-1.96.07-.94-.29-1.86-.98-2.51-.7-.58-1.59-.88-2.5-.85h-17.19c-.2.42-.38.85-.52,1.29-.24.68-.36,1.4-.35,2.12-.07.85.23,1.68.83,2.29.81.56,1.8.81,2.78.72h8.12l-9.73,8.54c-.62.53-1.14,1.17-1.54,1.88-.31.6-.47,1.28-.46,1.96-.07.94.29,1.86.98,2.51.7.58,1.59.89,2.5.85h17.2c.21-.42.38-.85.52-1.29.24-.68.35-1.39.35-2.11.08-.85-.23-1.69-.82-2.29-.81-.56-1.8-.81-2.78-.72h-8.12l9.73-8.55c.62-.53,1.14-1.17,1.54-1.88"/></g></svg>