<?xml version="1.0" encoding="UTF-8"?>
<svg id="zaprite" xmlns="http://www.w3.org/2000/svg" version="1.1" viewBox="0 0 312 40">
  <!-- Generator: Adobe Illustrator 29.4.0, SVG Export Plug-In . SVG Version: 2.1.0 Build 152)  -->
  <defs>
    <style>
      .st0 {
        isolation: isolate;
      }
    </style>
  </defs>
  <g class="st0">
    <g class="st0">
      <path d="M8.6,21.6h-3.1v9.5h-3.1V9h6.2c2.1,0,4,.4,5.3,1.6,1.4,1.2,2.1,2.6,2.1,4.7,0,4.4-3.5,6.3-7.5,6.3ZM8.4,11.5h-2.8v7.6h2.8c2.5,0,4.5-1,4.5-3.8s-2.1-3.8-4.5-3.8Z"/>
    </g>
    <g class="st0">
      <path d="M25.1,31.4c-4.5,0-8.1-3.2-8.1-7.9s3.5-7.9,8.1-7.9,8,3.2,8,7.9-3.5,7.9-8,7.9ZM25.1,18.1c-3.1,0-5,2.4-5,5.3s1.9,5.4,5,5.4,4.9-2.4,4.9-5.4-1.9-5.3-4.9-5.3Z"/>
    </g>
    <g class="st0">
      <path d="M52.5,31.1h-2.8l-4-11.4-4,11.4h-2.8l-5-15.2h3.1l3.5,11.5,4-11.5h2.5l4,11.5,3.5-11.5h3.1l-5,15.2Z"/>
    </g>
    <g class="st0">
      <path d="M73,24.2h-11.7c.2,3,2.1,4.8,4.9,4.8s4.7-1.5,5-1.8l1.3,1.8c-.2.2-2.1,2.4-6.7,2.4s-7.6-3.1-7.6-8,3.5-7.9,7.7-7.9,7.2,3,7.2,7.3,0,1.3,0,1.3ZM65.8,17.8c-3,0-4.4,2.5-4.5,4.4h8.9c0-1.7-1.3-4.4-4.4-4.4Z"/>
    </g>
    <g class="st0">
      <path d="M84.3,18.7h-.1c-.3-.1-.8-.3-1.7-.3-2.8,0-3.4,2.9-3.4,5.1v7.6h-3.1v-15.2h3.1v2.3s0,0,0,0c.7-1.7,2.1-2.6,3.7-2.6s1.6.3,1.6.3l-.2,2.8Z"/>
    </g>
    <g class="st0">
      <path d="M100.2,24.2h-11.7c.2,3,2.1,4.8,4.9,4.8s4.7-1.5,5-1.8l1.3,1.8c-.2.2-2.1,2.4-6.7,2.4s-7.6-3.1-7.6-8,3.5-7.9,7.7-7.9,7.2,3,7.2,7.3,0,1.3,0,1.3ZM93,17.8c-3,0-4.4,2.5-4.5,4.4h8.9c0-1.7-1.3-4.4-4.4-4.4Z"/>
    </g>
    <g class="st0">
      <path d="M115,31.1v-2.4h0c-1.2,1.9-3.1,2.8-5.3,2.8-4.5,0-7.4-3.5-7.4-8s2.9-7.9,7.3-7.9,4.3,1.1,5.3,2.7h0v-9.2h3v22.1h-2.9ZM110.2,18.1c-3,0-4.8,2.3-4.8,5.3s1.8,5.4,4.8,5.4,4.8-2.3,4.8-5.4-1.8-5.3-4.8-5.3Z"/>
    </g>
    <g class="st0">
      <path d="M137.2,31.4c-2.2,0-4.1-.9-5.3-2.8h0v2.4h-2.9V9h3v9.2h0c1.1-1.7,2.9-2.7,5.3-2.7,4.4,0,7.3,3.4,7.3,7.9s-2.9,8-7.4,8ZM136.6,18.1c-3,0-4.9,2.3-4.9,5.3s1.8,5.4,4.9,5.4,4.8-2.3,4.8-5.4-1.8-5.3-4.8-5.3Z"/>
    </g>
    <g class="st0">
      <path d="M153.1,33.7c-1.1,2.6-2.3,3.5-4,3.5s-2.9-.5-2.9-.5l.6-2.5s.8.4,1.6.4c1.2,0,1.6-.7,2-1.8l.7-2-6.2-14.9h3.2s4.6,11.8,4.6,11.8l4.5-11.8h3.2s-7.3,17.9-7.3,17.9Z"/>
    </g>
  </g>
  <g id="Group_1245">
    <path id="Path_2205" d="M211.6,10.4c-1.2-.8-2.5-1.3-3.8-1.6-1.6-.3-3.1-.5-4.7-.5-5.1,0-7.7,1.3-7.7,3.8s0,.8.2,1.1c.1.3.3.6.5.9.1.2.3.5.5.7.2.2.3.3.4.4.2-.1.4-.2.6-.4.4-.2.8-.3,1.1-.4.6-.2,1.1-.3,1.7-.4.8-.1,1.6-.2,2.4-.1,1.4-.1,2.9.2,4.1.9.8.5,1.3,1.4,1.2,2.4-.4,0-.9-.1-1.5-.1-.6,0-1.4,0-2.3,0-2.8-.2-5.6.4-8.1,1.7-1.8,1.3-2.8,3.5-2.6,5.7,0,1,.2,1.9.5,2.8.4.9,1,1.7,1.8,2.3,1,.8,2.2,1.3,3.5,1.6,1.8.4,3.6.6,5.5.6,1.3,0,2.5,0,3.7,0,1.2,0,2.2-.1,3.1-.2s1.7-.2,2.3-.2c.4,0,.8-.1,1.2-.2v-13.2c0-1.6-.3-3.1-.9-4.6-.6-1.2-1.5-2.2-2.6-2.9M208.1,26.7c-.4,0-.8.1-1.3.1-.6,0-1.3,0-2.1,0-.8,0-1.6,0-2.3-.2-.5-.1-.9-.3-1.3-.6-.3-.2-.5-.5-.6-.8-.2-.6-.2-1.2,0-1.8.1-.3.4-.6.6-.9.4-.3.8-.5,1.3-.6.7-.2,1.4-.2,2.1-.2,1,0,1.8,0,2.3,0,.4,0,.8,0,1.1.1v4.7h0Z"/>
    <path id="Path_2206" d="M266.1,0c-1,0-2,.4-2.8,1.1-.7.7-1.1,1.8-1.1,2.8,0,2.1,1.6,3.8,3.7,3.9h.2c1,0,2-.4,2.8-1.1.8-.7,1.2-1.7,1.1-2.8,0-1-.4-2-1.1-2.8C268.1.4,267.1,0,266.1,0"/>
    <path id="Path_2207" d="M266.2,9c-.9,0-1.9.2-2.6.7-.7.6-1.1,1.5-1,2.4v18.3c.5.2.9.4,1.4.5.7.2,1.5.4,2.3.4.9,0,1.8-.2,2.5-.8.6-.8.9-1.8.8-2.8V9.7c-.2,0-.6-.2-1.2-.4-.7-.2-1.4-.3-2.1-.3"/>
    <path id="Path_2208" d="M304.8,22.6c1.4-.2,2.7-.7,4-1.4.9-.5,1.6-1.3,2-2.2.4-.9.6-1.9.6-2.9,0-1-.2-2-.7-2.9-.5-1-1.1-1.8-2-2.5-.9-.8-2-1.4-3.1-1.7-1.4-.4-2.8-.6-4.2-.6-1.6,0-3.2.3-4.7.9-1.4.5-2.7,1.3-3.8,2.4-1.1,1.1-2,2.3-2.5,3.7-.6,1.5-.9,3.1-.9,4.8,0,1.7.3,3.4.9,5,1.1,2.8,3.4,5,6.2,6,1.5.5,3,.8,4.6.8,1.2,0,2.4,0,3.6-.3,1-.2,1.9-.4,2.9-.7.7-.2,1.3-.5,2-.8h0c.2,0,.4-.2.6-.3,0-.4,0-.8-.1-1.2,0-.6-.3-1.2-.6-1.8-.3-.7-.8-1.2-1.5-1.5-.4-.1-.9-.1-1.3,0h0c-.5.1-1.1.3-1.8.4-.7.1-1.4.2-2.1.2-.9,0-1.7,0-2.5-.3-.6-.1-1.2-.4-1.7-.7-.4-.2-.8-.6-1-.9-.2-.3-.4-.6-.4-1h1.5c2.1,0,4.3-.1,6.4-.5M296.5,18.5c0-.6.1-1.2.4-1.7.2-.6.5-1.1.9-1.5.4-.4.9-.8,1.5-1.1.6-.3,1.3-.4,2-.4.9,0,1.8.2,2.5.7.5.4.8,1,.8,1.6s0,.6-.2.9c-.2.4-.5.6-1,.8-.8.3-1.6.5-2.4.6-1.5.2-3,.2-4.5.2"/>
    <path id="Path_2209" d="M259.6,10.2c-.6-.5-1.3-1-2.1-1.2-1.3-.4-2.7-.6-4.1-.6-1.3,0-2.6.2-3.9.6-1.1.4-2.2.9-3,1.7-.9.8-1.5,1.7-2,2.8-.5,1.2-.7,2.5-.7,3.8v13.1c.4.2.9.4,1.4.5.7.2,1.5.4,2.3.4.9,0,1.8-.2,2.5-.8.6-.8.9-1.8.8-2.8v-8.8c-.1-1.2.3-2.4,1.1-3.2.8-.6,1.8-1,2.8-1,.8,0,1.6,0,2.3.3.6.2,1.2.4,1.8.6,0,0,.2-.2.4-.4.2-.2.4-.5.5-.7.2-.3.4-.6.5-1,.1-.4.2-.8.2-1.2s0-.8-.2-1.1c-.1-.3-.4-.6-.6-.9"/>
    <path id="Path_2210" d="M238.1,11.6c-1.1-1-2.4-1.8-3.8-2.4-1.5-.6-3.1-.9-4.8-.9-2,0-3.9.4-5.7,1.1-1.7.7-3.1,1.9-4.2,3.3-.8,1-1.3,2.2-1.6,3.5-.4,1.6-.6,3.2-.6,4.8v18c.4.2.9.4,1.4.5.7.2,1.5.4,2.2.3.9,0,1.8-.2,2.5-.8.6-.8.9-1.8.8-2.8v-6.9c.7.6,1.5,1.2,2.4,1.6,1.3.5,2.6.8,4,.8,1.4,0,2.9-.3,4.2-.8,1.3-.5,2.4-1.3,3.4-2.4,1-1.1,1.8-2.3,2.3-3.7.6-1.5.9-3.2.9-4.8,0-1.6-.3-3.3-.9-4.8-.6-1.4-1.4-2.7-2.5-3.7M233,24c-.9,1-2.2,1.5-3.6,1.5-.7,0-1.4-.1-2-.4-.6-.3-1.1-.7-1.6-1.1-.5-.5-.8-1.1-1-1.7-.2-.7-.4-1.4-.4-2.1,0-1.4.4-2.8,1.4-3.8,1-.9,2.2-1.4,3.6-1.4,1.3,0,2.6.5,3.6,1.4,1,1,1.5,2.4,1.4,3.8,0,1.4-.4,2.8-1.4,3.9"/>
    <path id="Path_2211" d="M288.9,28.3c0-.6-.2-1.1-.5-1.6-.3-.7-.7-1.3-1.4-1.7-.6-.3-1.4-.3-2,0h-.1c-.7.3-1.5.5-2.3.5-.4,0-.8,0-1.2-.1-.4,0-.7-.2-1-.5-.3-.2-.6-.6-.8-.9-.2-.5-.3-1-.3-1.6v-6.8h7.7c.2-.4.4-.9.5-1.3.2-.7.4-1.4.4-2.1,0-.9-.2-1.7-.8-2.4-.8-.6-1.8-.9-2.8-.8h-5V3.2c-.2,0-.6-.2-1.2-.4-.7-.2-1.4-.3-2.1-.3-.9,0-1.9.2-2.6.7-.7.6-1.1,1.5-1,2.4v18.4c-.1,2.2.7,4.3,2.3,5.8,1.8,1.5,4.1,2.3,6.4,2.2.9,0,1.8,0,2.7-.3.8-.2,1.6-.4,2.4-.7.6-.2,1.2-.5,1.8-.8.4-.2.8-.5,1.1-.8h0c0-.1,0-.5-.1-1"/>
    <path id="Path_2212" d="M191.1,14.4c.3-.6.5-1.3.4-2,0-.9-.3-1.9-1-2.5-.7-.6-1.6-.9-2.5-.9h-17.2c-.2.4-.4.9-.5,1.3-.2.7-.4,1.4-.4,2.1,0,.9.2,1.7.8,2.3.8.6,1.8.8,2.8.7h8.1l-9.7,8.5c-.6.5-1.1,1.2-1.5,1.9-.3.6-.5,1.3-.5,2,0,.9.3,1.9,1,2.5.7.6,1.6.9,2.5.9h17.2c.2-.4.4-.9.5-1.3.2-.7.4-1.4.4-2.1,0-.9-.2-1.7-.8-2.3-.8-.6-1.8-.8-2.8-.7h-8.1l9.7-8.6c.6-.5,1.1-1.2,1.5-1.9"/>
  </g>
</svg>